<svg width="149" height="134" viewBox="0 0 149 134" fill="none" xmlns="http://www.w3.org/2000/svg">
<path d="M30.1678 42.7701H2.71276V32.4001H48.1028L18.1828 92.7501H5.26276L30.1678 42.7701ZM96.0042 57.0501C96.0042 62.0367 95.0409 66.4851 93.1142 70.3951C91.2443 74.2484 88.6376 77.2801 85.2942 79.4901C82.0076 81.7001 78.2676 82.8051 74.0742 82.8051C69.8809 82.8051 66.1126 81.7001 62.7692 79.4901C59.4826 77.2801 56.8759 74.2484 54.9492 70.3951C53.0792 66.4851 52.1442 62.0367 52.1442 57.0501C52.1442 52.0634 53.0792 47.6434 54.9492 43.7901C56.8759 39.8801 59.4826 36.8201 62.7692 34.6101C66.1126 32.3434 69.8809 31.2101 74.0742 31.2101C78.2676 31.2101 82.0076 32.3434 85.2942 34.6101C88.6376 36.8201 91.2443 39.8801 93.1142 43.7901C95.0409 47.6434 96.0042 52.0634 96.0042 57.0501ZM84.5292 57.0501C84.5292 52.5167 83.5376 48.8334 81.5542 46.0001C79.6276 43.1101 77.1343 41.6651 74.0742 41.6651C70.9009 41.6651 68.3509 43.1101 66.4242 46.0001C64.4976 48.8334 63.5342 52.5167 63.5342 57.0501C63.5342 61.5834 64.4976 65.2667 66.4242 68.1001C68.3509 70.9334 70.9009 72.3501 74.0742 72.3501C77.1343 72.3501 79.6276 70.9334 81.5542 68.1001C83.5376 65.2667 84.5292 61.5834 84.5292 57.0501ZM135.806 81.9551L122.801 62.7451L116.766 68.6951V81.9551H105.376V19.9051H116.766V57.4751L134.701 37.5001H146.771L130.196 56.3701L147.961 81.9551H135.806Z" fill="#5CBE3A"/>
<path opacity="0.7" d="M25.457 121.726C25.457 121.033 25.5743 120.355 25.809 119.694C26.0543 119.022 26.4063 118.414 26.865 117.87C27.3343 117.315 27.905 116.878 28.577 116.558C29.249 116.227 30.0117 116.062 30.865 116.062C31.8783 116.062 32.7477 116.297 33.473 116.766C34.1983 117.225 34.737 117.817 35.089 118.542L33.953 119.278C33.729 118.798 33.441 118.419 33.089 118.142C32.7477 117.854 32.3743 117.651 31.969 117.534C31.5743 117.417 31.185 117.358 30.801 117.358C30.1717 117.358 29.6117 117.486 29.121 117.742C28.641 117.998 28.2357 118.339 27.905 118.766C27.5743 119.193 27.3237 119.673 27.153 120.206C26.993 120.729 26.913 121.257 26.913 121.79C26.913 122.377 27.009 122.942 27.201 123.486C27.4037 124.03 27.681 124.51 28.033 124.926C28.385 125.342 28.801 125.673 29.281 125.918C29.761 126.163 30.2837 126.286 30.849 126.286C31.2437 126.286 31.649 126.217 32.065 126.078C32.481 125.939 32.8703 125.726 33.233 125.438C33.5957 125.139 33.8837 124.755 34.097 124.286L35.297 124.942C35.0623 125.507 34.6997 125.987 34.209 126.382C33.7183 126.777 33.169 127.075 32.561 127.278C31.9637 127.481 31.3717 127.582 30.785 127.582C30.0063 127.582 29.2917 127.417 28.641 127.086C27.9903 126.745 27.425 126.297 26.945 125.742C26.4757 125.177 26.1077 124.547 25.841 123.854C25.585 123.15 25.457 122.441 25.457 121.726ZM41.7873 127.566C40.8806 127.566 40.1179 127.411 39.4993 127.102C38.8806 126.782 38.3846 126.355 38.0113 125.822C37.6379 125.278 37.3659 124.665 37.1953 123.982C37.0246 123.299 36.9393 122.595 36.9393 121.87V116.126H38.3793V121.87C38.3793 122.425 38.4326 122.969 38.5393 123.502C38.6566 124.025 38.8433 124.494 39.0993 124.91C39.3553 125.326 39.7019 125.657 40.1393 125.902C40.5766 126.147 41.1206 126.27 41.7713 126.27C42.4326 126.27 42.9819 126.147 43.4193 125.902C43.8566 125.646 44.2033 125.31 44.4593 124.894C44.7153 124.467 44.8966 123.993 45.0033 123.47C45.1206 122.947 45.1793 122.414 45.1793 121.87V116.126H46.6193V121.87C46.6193 122.638 46.5286 123.369 46.3473 124.062C46.1766 124.745 45.8993 125.347 45.5153 125.87C45.1313 126.393 44.6299 126.809 44.0113 127.118C43.4033 127.417 42.6619 127.566 41.7873 127.566ZM55.8494 118.51C55.5827 118.211 55.172 117.939 54.6174 117.694C54.0627 117.449 53.444 117.326 52.7614 117.326C51.8867 117.326 51.2414 117.491 50.8254 117.822C50.4094 118.153 50.2014 118.606 50.2014 119.182C50.2014 119.587 50.308 119.907 50.5214 120.142C50.7347 120.377 51.06 120.569 51.4974 120.718C51.9454 120.867 52.5107 121.022 53.1934 121.182C53.9827 121.353 54.6654 121.561 55.2414 121.806C55.8174 122.051 56.26 122.382 56.5694 122.798C56.8787 123.203 57.0334 123.747 57.0334 124.43C57.0334 125.155 56.8521 125.753 56.4894 126.222C56.1267 126.691 55.6307 127.038 55.0014 127.262C54.3827 127.486 53.684 127.598 52.9054 127.598C51.1347 127.598 49.5934 127.065 48.2814 125.998L48.9694 124.782C49.204 125.017 49.5187 125.251 49.9134 125.486C50.3187 125.721 50.7774 125.918 51.2894 126.078C51.812 126.227 52.3614 126.302 52.9374 126.302C53.748 126.302 54.3774 126.158 54.8254 125.87C55.2734 125.571 55.4974 125.139 55.4974 124.574C55.4974 124.147 55.3694 123.806 55.1134 123.55C54.868 123.294 54.5 123.081 54.0094 122.91C53.5187 122.739 52.9214 122.569 52.2174 122.398C51.4494 122.206 50.804 121.998 50.2814 121.774C49.7587 121.539 49.364 121.235 49.0974 120.862C48.8414 120.489 48.7134 120.003 48.7134 119.406C48.7134 118.681 48.8894 118.067 49.2414 117.566C49.5934 117.065 50.0787 116.686 50.6974 116.43C51.316 116.174 52.0147 116.046 52.7934 116.046C53.5507 116.046 54.2387 116.163 54.8574 116.398C55.4867 116.633 56.0414 116.947 56.5214 117.342L55.8494 118.51ZM67.1194 117.406H63.1994V127.486H61.7594V117.406H57.8394V116.126H67.1194V117.406ZM73.0198 127.566C72.2198 127.566 71.4944 127.406 70.8438 127.086C70.1931 126.766 69.6278 126.334 69.1478 125.79C68.6784 125.235 68.3158 124.617 68.0598 123.934C67.8038 123.241 67.6758 122.531 67.6758 121.806C67.6758 121.049 67.8091 120.329 68.0758 119.646C68.3531 118.953 68.7318 118.339 69.2118 117.806C69.7024 117.262 70.2731 116.835 70.9238 116.526C71.5744 116.206 72.2838 116.046 73.0518 116.046C73.8518 116.046 74.5771 116.211 75.2278 116.542C75.8784 116.873 76.4384 117.315 76.9078 117.87C77.3771 118.425 77.7398 119.043 77.9958 119.726C78.2518 120.409 78.3798 121.107 78.3798 121.822C78.3798 122.579 78.2464 123.305 77.9798 123.998C77.7131 124.681 77.3344 125.294 76.8438 125.838C76.3638 126.371 75.7984 126.793 75.1478 127.102C74.4971 127.411 73.7878 127.566 73.0198 127.566ZM69.1318 121.806C69.1318 122.382 69.2224 122.942 69.4038 123.486C69.5958 124.019 69.8624 124.494 70.2038 124.91C70.5451 125.326 70.9558 125.657 71.4358 125.902C71.9158 126.147 72.4491 126.27 73.0358 126.27C73.6438 126.27 74.1878 126.142 74.6678 125.886C75.1478 125.63 75.5531 125.289 75.8838 124.862C76.2251 124.435 76.4811 123.955 76.6518 123.422C76.8331 122.889 76.9238 122.35 76.9238 121.806C76.9238 121.23 76.8278 120.675 76.6358 120.142C76.4544 119.609 76.1878 119.134 75.8358 118.718C75.4944 118.291 75.0838 117.961 74.6038 117.726C74.1344 117.481 73.6118 117.358 73.0358 117.358C72.4278 117.358 71.8838 117.486 71.4038 117.742C70.9238 117.987 70.5131 118.323 70.1718 118.75C69.8411 119.177 69.5851 119.657 69.4038 120.19C69.2224 120.713 69.1318 121.251 69.1318 121.806ZM90.2045 127.486V118.814L86.4605 125.486H85.5805L81.8205 118.814V127.486H80.3805V116.126H81.9005L86.0125 123.502L90.1405 116.126H91.6445V127.486H90.2045ZM102.077 126.206V127.486H94.3649V116.126H101.933V117.406H95.8049V121.086H101.133V122.286H95.8049V126.206H102.077ZM104.052 127.486V116.126H108.916C109.418 116.126 109.876 116.233 110.292 116.446C110.708 116.649 111.071 116.926 111.38 117.278C111.69 117.619 111.93 118.009 112.1 118.446C112.271 118.873 112.356 119.31 112.356 119.758C112.356 120.281 112.255 120.777 112.052 121.246C111.86 121.715 111.583 122.115 111.22 122.446C110.868 122.777 110.452 123.006 109.972 123.134L112.724 127.486H111.092L108.5 123.406H105.492V127.486H104.052ZM105.492 122.126H108.932C109.327 122.126 109.668 122.019 109.956 121.806C110.255 121.582 110.484 121.289 110.644 120.926C110.815 120.563 110.9 120.174 110.9 119.758C110.9 119.331 110.804 118.942 110.612 118.59C110.42 118.227 110.17 117.939 109.86 117.726C109.551 117.513 109.21 117.406 108.836 117.406H105.492V122.126ZM121.24 118.51C120.973 118.211 120.563 117.939 120.008 117.694C119.453 117.449 118.835 117.326 118.152 117.326C117.277 117.326 116.632 117.491 116.216 117.822C115.8 118.153 115.592 118.606 115.592 119.182C115.592 119.587 115.699 119.907 115.912 120.142C116.125 120.377 116.451 120.569 116.888 120.718C117.336 120.867 117.901 121.022 118.584 121.182C119.373 121.353 120.056 121.561 120.632 121.806C121.208 122.051 121.651 122.382 121.96 122.798C122.269 123.203 122.424 123.747 122.424 124.43C122.424 125.155 122.243 125.753 121.88 126.222C121.517 126.691 121.021 127.038 120.392 127.262C119.773 127.486 119.075 127.598 118.296 127.598C116.525 127.598 114.984 127.065 113.672 125.998L114.36 124.782C114.595 125.017 114.909 125.251 115.304 125.486C115.709 125.721 116.168 125.918 116.68 126.078C117.203 126.227 117.752 126.302 118.328 126.302C119.139 126.302 119.768 126.158 120.216 125.87C120.664 125.571 120.888 125.139 120.888 124.574C120.888 124.147 120.76 123.806 120.504 123.55C120.259 123.294 119.891 123.081 119.4 122.91C118.909 122.739 118.312 122.569 117.608 122.398C116.84 122.206 116.195 121.998 115.672 121.774C115.149 121.539 114.755 121.235 114.488 120.862C114.232 120.489 114.104 120.003 114.104 119.406C114.104 118.681 114.28 118.067 114.632 117.566C114.984 117.065 115.469 116.686 116.088 116.43C116.707 116.174 117.405 116.046 118.184 116.046C118.941 116.046 119.629 116.163 120.248 116.398C120.877 116.633 121.432 116.947 121.912 117.342L121.24 118.51Z" fill="#051101"/>
</svg>
